<?xml version="1.0" encoding="UTF-8"?>
<svg xmlns="http://www.w3.org/2000/svg" xmlns:xlink="http://www.w3.org/1999/xlink" viewBox="0 0 30 26" width="30" height="26">
    <path fill="#79B51C" transform="translate(0 .464)" d="M11.43 5.584l-.176-.04-.181-.046-.19-.056-.099-.03-.102-.031-.106-.037-.11-.037-.115-.043-.12-.047-.124-.049-.13-.052-.137-.056L9.697 5l-.15-.065-.158-.068-.165-.077-.173-.08-.182-.083-.19-.09-.2-.098-.21-.102-.22-.108-.231-.114-.242-.12-.252-.127-.265-.135-.277-.139-.29-.15-.302-.155C1.824 1.03.85.888.28 1.803-.47 3.008.217 6.07 3.226 11.71c1.97 3.692 5.052 8.432 5.603 9.067.125.144.269.155.393.091.137-.071.179-.189.084-.366-.453-.853-2.079-4.17-2.797-5.89-1.73-4.135-2.119-5.534-1.528-5.852.153-.08.377-.024.856.228 1.67.885 5.319 3.695 5.952 5.634.275.85.42 1.856.476 5.355.072 4.634.425 5.487 1.566 5.487 1.505 0 4.019-2.082 7.785-7.318 2.464-3.428 5.351-8.273 5.67-9.031.07-.173.009-.296-.115-.364-.133-.074-.263-.046-.38.117-.572.792-2.857 3.754-4.103 5.19-2.998 3.456-4.115 4.469-4.705 4.153-.152-.083-.21-.29-.213-.802-.01-1.781.791-6.115 2.284-7.595.656-.647 1.524-1.263 4.765-3.06 4.294-2.373 4.912-3.085 4.343-4C28.411 1.547 25.207.57 18.433.166 13.997-.099 8.028.003 7.161.13c-.198.028-.28.139-.283.271-.002.145.088.235.301.25 1.024.062 4.935.416 6.898.7 4.727.678 6.23 1.066 6.23 1.698 0 .163-.164.314-.64.573-1.657.9-6.11 2.422-8.237 1.963z"/>
</svg>
